<svg xmlns="http://www.w3.org/2000/svg" width="256" height="192" viewBox="0 0 256 192" shape-rendering="crispEdges">
<ellipse cx="128" cy="176" rx="88" ry="12" fill="#3c2b20" opacity="0.24"/>
    <rect x="42" y="67" width="172" height="109" fill="#d4b987" stroke="#49645e" stroke-width="8"/>
    <path d="M24 77 L128 21 L232 77 L212 99 L44 99 Z" fill="#6f9b91" stroke="#49645e" stroke-width="8"/>
    <rect x="108" y="132" width="40" height="44" fill="#49645e" />
    <rect x="58" y="105" width="12" height="66" fill="#b33a4b" /><rect x="54" y="99" width="20" height="8" fill="#49645e" /><rect x="54" y="168" width="20" height="8" fill="#49645e" />
<rect x="88" y="105" width="12" height="66" fill="#b33a4b" /><rect x="84" y="99" width="20" height="8" fill="#49645e" /><rect x="84" y="168" width="20" height="8" fill="#49645e" />
<rect x="166" y="105" width="12" height="66" fill="#b33a4b" /><rect x="162" y="99" width="20" height="8" fill="#49645e" /><rect x="162" y="168" width="20" height="8" fill="#49645e" />
<rect x="196" y="105" width="12" height="66" fill="#b33a4b" /><rect x="192" y="99" width="20" height="8" fill="#49645e" /><rect x="192" y="168" width="20" height="8" fill="#49645e" />
    
    
    
    <rect x="196" y="136" width="22" height="22" fill="#f2e5c2" /><rect x="204" y="126" width="6" height="36" fill="#b33a4b" /><rect x="190" y="140" width="34" height="6" fill="#b33a4b" />
</svg>
