<svg xmlns="http://www.w3.org/2000/svg" width="64" height="64" viewBox="0 0 64 64" shape-rendering="crispEdges">
  <title>Ludus</title>
  <rect width="64" height="64" fill="none"/>
  <path d="M18 4H46V8H54V16H58V40H54V50H46V58H36V62H28V58H18V50H10V40H6V16H10V8H18V4Z" fill="#2e2119"/>
  <path d="M18 8H46V12H52V18H56V38H52V48H44V54H34V58H30V54H20V48H12V38H8V18H12V12H18V8Z" fill="#8c2f39"/>
  <path d="M18 12H46V16H50V22H54V38H50V46H42V50H22V46H14V38H10V22H14V16H18V12Z" fill="#b9851d"/>
  <path d="M22 16H42V20H48V28H16V20H22V16Z" fill="#e8c06a"/>
  <path d="M20 28H44V32H48V42H44V46H20V42H16V32H20V28Z" fill="#c49352"/>
  <rect x="16" y="32" width="12" height="8" fill="#2e2119"/>
  <rect x="36" y="32" width="12" height="8" fill="#2e2119"/>
  <rect x="30" y="28" width="4" height="18" fill="#2e2119"/>
  <rect x="22" y="40" width="20" height="4" fill="#f1d493"/>
  <path d="M26 6H38V10H44V14H20V10H26V6Z" fill="#a84031"/>
  <rect x="28" y="10" width="8" height="4" fill="#6f1f2a"/>
  <rect x="12" y="22" width="4" height="4" fill="#f1d493"/>
  <rect x="48" y="22" width="4" height="4" fill="#f1d493"/>
  <rect x="20" y="48" width="24" height="2" fill="#6f1f2a"/>
</svg>
