<svg xmlns="http://www.w3.org/2000/svg" width="1440" height="980" viewBox="0 0 1440 980" shape-rendering="crispEdges">
<rect width="1440" height="980" fill="#94b9c8"/>
<circle cx="1064" cy="138" r="58" fill="#ffe09a"/>
<rect x="0" y="334" width="1440" height="646" fill="#c7b779"/>
<ellipse cx="560" cy="414" rx="264" ry="190" fill="#67854f"/>
<ellipse cx="1012" cy="418" rx="296" ry="182" fill="#79925c"/>
<rect x="0" y="706" width="1440" height="274" fill="#9b8755" opacity="0.6"/>
<path d="M574 822 L1226 362 L1284 394 L632 858 Z" fill="#b46b3c"/>
<path d="M566 462 L1328 776 L1328 806 L566 492 Z" fill="#8b583b"/>
<rect x="560" y="364" width="778" height="536" fill="none" stroke="#704f34" stroke-width="10"/>
<rect x="572" y="376" width="754" height="512" fill="none" stroke="#e8d196" stroke-width="4"/>
<ellipse cx="1192" cy="496" rx="142" ry="90" fill="#8a705e"/>
<ellipse cx="1192" cy="496" rx="108" ry="66" fill="#f0d2a6"/>
<ellipse cx="1192" cy="496" rx="72" ry="44" fill="#c98d58"/>
<circle cx="888" cy="644" r="42" fill="#e5dcc6"/>
<circle cx="888" cy="644" r="24" fill="#5c7883"/>
<g opacity="0.14">
<rect x="0" y="334" width="2" height="646" fill="#5e4a2e"/><rect x="38" y="334" width="2" height="646" fill="#5e4a2e"/><rect x="76" y="334" width="2" height="646" fill="#5e4a2e"/><rect x="114" y="334" width="2" height="646" fill="#5e4a2e"/><rect x="152" y="334" width="2" height="646" fill="#5e4a2e"/><rect x="190" y="334" width="2" height="646" fill="#5e4a2e"/><rect x="228" y="334" width="2" height="646" fill="#5e4a2e"/><rect x="266" y="334" width="2" height="646" fill="#5e4a2e"/><rect x="304" y="334" width="2" height="646" fill="#5e4a2e"/><rect x="342" y="334" width="2" height="646" fill="#5e4a2e"/><rect x="380" y="334" width="2" height="646" fill="#5e4a2e"/><rect x="418" y="334" width="2" height="646" fill="#5e4a2e"/><rect x="456" y="334" width="2" height="646" fill="#5e4a2e"/><rect x="494" y="334" width="2" height="646" fill="#5e4a2e"/><rect x="532" y="334" width="2" height="646" fill="#5e4a2e"/><rect x="570" y="334" width="2" height="646" fill="#5e4a2e"/><rect x="608" y="334" width="2" height="646" fill="#5e4a2e"/><rect x="646" y="334" width="2" height="646" fill="#5e4a2e"/><rect x="684" y="334" width="2" height="646" fill="#5e4a2e"/><rect x="722" y="334" width="2" height="646" fill="#5e4a2e"/><rect x="760" y="334" width="2" height="646" fill="#5e4a2e"/><rect x="798" y="334" width="2" height="646" fill="#5e4a2e"/><rect x="836" y="334" width="2" height="646" fill="#5e4a2e"/><rect x="874" y="334" width="2" height="646" fill="#5e4a2e"/><rect x="912" y="334" width="2" height="646" fill="#5e4a2e"/><rect x="950" y="334" width="2" height="646" fill="#5e4a2e"/><rect x="988" y="334" width="2" height="646" fill="#5e4a2e"/><rect x="1026" y="334" width="2" height="646" fill="#5e4a2e"/><rect x="1064" y="334" width="2" height="646" fill="#5e4a2e"/><rect x="1102" y="334" width="2" height="646" fill="#5e4a2e"/><rect x="1140" y="334" width="2" height="646" fill="#5e4a2e"/><rect x="1178" y="334" width="2" height="646" fill="#5e4a2e"/><rect x="1216" y="334" width="2" height="646" fill="#5e4a2e"/><rect x="1254" y="334" width="2" height="646" fill="#5e4a2e"/><rect x="1292" y="334" width="2" height="646" fill="#5e4a2e"/><rect x="1330" y="334" width="2" height="646" fill="#5e4a2e"/><rect x="1368" y="334" width="2" height="646" fill="#5e4a2e"/><rect x="1406" y="334" width="2" height="646" fill="#5e4a2e"/><rect x="1444" y="334" width="2" height="646" fill="#5e4a2e"/><rect x="1482" y="334" width="2" height="646" fill="#5e4a2e"/>
<rect x="0" y="334" width="1440" height="2" fill="#5e4a2e"/><rect x="0" y="362" width="1440" height="2" fill="#5e4a2e"/><rect x="0" y="390" width="1440" height="2" fill="#5e4a2e"/><rect x="0" y="418" width="1440" height="2" fill="#5e4a2e"/><rect x="0" y="446" width="1440" height="2" fill="#5e4a2e"/><rect x="0" y="474" width="1440" height="2" fill="#5e4a2e"/><rect x="0" y="502" width="1440" height="2" fill="#5e4a2e"/><rect x="0" y="530" width="1440" height="2" fill="#5e4a2e"/><rect x="0" y="558" width="1440" height="2" fill="#5e4a2e"/><rect x="0" y="586" width="1440" height="2" fill="#5e4a2e"/><rect x="0" y="614" width="1440" height="2" fill="#5e4a2e"/><rect x="0" y="642" width="1440" height="2" fill="#5e4a2e"/><rect x="0" y="670" width="1440" height="2" fill="#5e4a2e"/><rect x="0" y="698" width="1440" height="2" fill="#5e4a2e"/><rect x="0" y="726" width="1440" height="2" fill="#5e4a2e"/><rect x="0" y="754" width="1440" height="2" fill="#5e4a2e"/><rect x="0" y="782" width="1440" height="2" fill="#5e4a2e"/><rect x="0" y="810" width="1440" height="2" fill="#5e4a2e"/><rect x="0" y="838" width="1440" height="2" fill="#5e4a2e"/><rect x="0" y="866" width="1440" height="2" fill="#5e4a2e"/><rect x="0" y="894" width="1440" height="2" fill="#5e4a2e"/><rect x="0" y="922" width="1440" height="2" fill="#5e4a2e"/><rect x="0" y="950" width="1440" height="2" fill="#5e4a2e"/><rect x="0" y="978" width="1440" height="2" fill="#5e4a2e"/>
</g>
</svg>
