<svg xmlns="http://www.w3.org/2000/svg" width="256" height="192" viewBox="0 0 256 192" shape-rendering="crispEdges">
<ellipse cx="128" cy="176" rx="98" ry="12" fill="#3c2b20" opacity="0.24"/>
      <rect x="24" y="72" width="208" height="100" fill="#c69052" stroke="#59402b" stroke-width="8"/>
      <g opacity="0.42">
        <rect x="38" y="88" width="8" height="68" fill="#7c5534" />
<rect x="68" y="88" width="8" height="68" fill="#7c5534" />
<rect x="98" y="88" width="8" height="68" fill="#7c5534" />
<rect x="128" y="88" width="8" height="68" fill="#7c5534" />
<rect x="158" y="88" width="8" height="68" fill="#7c5534" />
<rect x="188" y="88" width="8" height="68" fill="#7c5534" />
      </g>
      <rect x="54" y="68" width="8" height="86" fill="#5b3c27" /><rect x="42" y="88" width="32" height="8" fill="#5b3c27" /><rect x="92" y="68" width="8" height="86" fill="#5b3c27" /><rect x="80" y="88" width="32" height="8" fill="#5b3c27" /><rect x="130" y="68" width="8" height="86" fill="#5b3c27" /><rect x="118" y="88" width="32" height="8" fill="#5b3c27" /><rect x="168" y="68" width="8" height="86" fill="#5b3c27" /><rect x="156" y="88" width="32" height="8" fill="#5b3c27" />
</svg>
