<svg xmlns="http://www.w3.org/2000/svg" width="1440" height="980" viewBox="0 0 1440 980" shape-rendering="crispEdges">
<rect x="0" y="0" width="1440" height="980" fill="#83b6c8" />
    
    <ellipse cx="1060" cy="145" rx="58" ry="58" fill="#ffe09a" opacity="0.9"/>
    <path d="M0 280 C180 190 300 260 460 205 C630 145 740 245 900 188 C1080 125 1210 220 1440 160 L1440 460 L0 460 Z" fill="#5f765f" opacity="0.55"/>
    <path d="M0 350 C260 270 420 335 650 265 C810 220 1040 350 1440 270 L1440 980 L0 980 Z" fill="#6f8f50"/>
    <rect x="0" y="550" width="1440" height="430" fill="#bfa66d" />
    <g opacity="0.16">
      <rect x="0" y="550" width="3" height="430" fill="#604929" />
<rect x="48" y="550" width="3" height="430" fill="#604929" />
<rect x="96" y="550" width="3" height="430" fill="#604929" />
<rect x="144" y="550" width="3" height="430" fill="#604929" />
<rect x="192" y="550" width="3" height="430" fill="#604929" />
<rect x="240" y="550" width="3" height="430" fill="#604929" />
<rect x="288" y="550" width="3" height="430" fill="#604929" />
<rect x="336" y="550" width="3" height="430" fill="#604929" />
<rect x="384" y="550" width="3" height="430" fill="#604929" />
<rect x="432" y="550" width="3" height="430" fill="#604929" />
<rect x="480" y="550" width="3" height="430" fill="#604929" />
<rect x="528" y="550" width="3" height="430" fill="#604929" />
<rect x="576" y="550" width="3" height="430" fill="#604929" />
<rect x="624" y="550" width="3" height="430" fill="#604929" />
<rect x="672" y="550" width="3" height="430" fill="#604929" />
<rect x="720" y="550" width="3" height="430" fill="#604929" />
<rect x="768" y="550" width="3" height="430" fill="#604929" />
<rect x="816" y="550" width="3" height="430" fill="#604929" />
<rect x="864" y="550" width="3" height="430" fill="#604929" />
<rect x="912" y="550" width="3" height="430" fill="#604929" />
<rect x="960" y="550" width="3" height="430" fill="#604929" />
<rect x="1008" y="550" width="3" height="430" fill="#604929" />
<rect x="1056" y="550" width="3" height="430" fill="#604929" />
<rect x="1104" y="550" width="3" height="430" fill="#604929" />
<rect x="1152" y="550" width="3" height="430" fill="#604929" />
<rect x="1200" y="550" width="3" height="430" fill="#604929" />
<rect x="1248" y="550" width="3" height="430" fill="#604929" />
<rect x="1296" y="550" width="3" height="430" fill="#604929" />
<rect x="1344" y="550" width="3" height="430" fill="#604929" />
<rect x="1392" y="550" width="3" height="430" fill="#604929" />
<rect x="1440" y="550" width="3" height="430" fill="#604929" />
<rect x="1488" y="550" width="3" height="430" fill="#604929" />
      <rect x="0" y="570" width="1440" height="2" fill="#604929" />
<rect x="0" y="604" width="1440" height="2" fill="#604929" />
<rect x="0" y="638" width="1440" height="2" fill="#604929" />
<rect x="0" y="672" width="1440" height="2" fill="#604929" />
<rect x="0" y="706" width="1440" height="2" fill="#604929" />
<rect x="0" y="740" width="1440" height="2" fill="#604929" />
<rect x="0" y="774" width="1440" height="2" fill="#604929" />
<rect x="0" y="808" width="1440" height="2" fill="#604929" />
<rect x="0" y="842" width="1440" height="2" fill="#604929" />
<rect x="0" y="876" width="1440" height="2" fill="#604929" />
<rect x="0" y="910" width="1440" height="2" fill="#604929" />
<rect x="0" y="944" width="1440" height="2" fill="#604929" />
    </g>
    <path d="M560 910 L910 620 L980 650 L640 940 Z" fill="#9a6b43" opacity="0.82"/>
    <path d="M780 940 L1200 540 L1260 570 L850 960 Z" fill="#a37145" opacity="0.75"/>
    <rect x="510" y="350" width="820" height="550" fill="none" stroke="#5c4634" stroke-width="10"/>
    <rect x="522" y="362" width="796" height="526" fill="none" stroke="#d8bd79" stroke-width="3" opacity="0.75"/>
    <g opacity="0.15">
      <g transform="translate(560,388)"><rect x="0" y="0" width="8" height="34" fill="#4b2f22" /><rect x="-4" y="-10" width="16" height="12" fill="#ffe8a5" /></g>
<g transform="translate(665,388)"><rect x="0" y="0" width="8" height="34" fill="#4b2f22" /><rect x="-4" y="-10" width="16" height="12" fill="#ffe8a5" /></g>
<g transform="translate(770,388)"><rect x="0" y="0" width="8" height="34" fill="#4b2f22" /><rect x="-4" y="-10" width="16" height="12" fill="#ffe8a5" /></g>
<g transform="translate(875,388)"><rect x="0" y="0" width="8" height="34" fill="#4b2f22" /><rect x="-4" y="-10" width="16" height="12" fill="#ffe8a5" /></g>
<g transform="translate(980,388)"><rect x="0" y="0" width="8" height="34" fill="#4b2f22" /><rect x="-4" y="-10" width="16" height="12" fill="#ffe8a5" /></g>
<g transform="translate(1085,388)"><rect x="0" y="0" width="8" height="34" fill="#4b2f22" /><rect x="-4" y="-10" width="16" height="12" fill="#ffe8a5" /></g>
<g transform="translate(1190,388)"><rect x="0" y="0" width="8" height="34" fill="#4b2f22" /><rect x="-4" y="-10" width="16" height="12" fill="#ffe8a5" /></g>
<g transform="translate(1295,388)"><rect x="0" y="0" width="8" height="34" fill="#4b2f22" /><rect x="-4" y="-10" width="16" height="12" fill="#ffe8a5" /></g>
      <g transform="translate(540,846)"><rect x="0" y="0" width="8" height="34" fill="#4b2f22" /><rect x="-4" y="-10" width="16" height="12" fill="#ffe8a5" /></g>
<g transform="translate(675,846)"><rect x="0" y="0" width="8" height="34" fill="#4b2f22" /><rect x="-4" y="-10" width="16" height="12" fill="#ffe8a5" /></g>
<g transform="translate(810,846)"><rect x="0" y="0" width="8" height="34" fill="#4b2f22" /><rect x="-4" y="-10" width="16" height="12" fill="#ffe8a5" /></g>
<g transform="translate(945,846)"><rect x="0" y="0" width="8" height="34" fill="#4b2f22" /><rect x="-4" y="-10" width="16" height="12" fill="#ffe8a5" /></g>
<g transform="translate(1080,846)"><rect x="0" y="0" width="8" height="34" fill="#4b2f22" /><rect x="-4" y="-10" width="16" height="12" fill="#ffe8a5" /></g>
<g transform="translate(1215,846)"><rect x="0" y="0" width="8" height="34" fill="#4b2f22" /><rect x="-4" y="-10" width="16" height="12" fill="#ffe8a5" /></g>
    </g>
    <rect x="0" y="0" width="1440" height="980" fill="#4b3828" opacity="0.03"/>
</svg>
