<svg xmlns="http://www.w3.org/2000/svg" width="1440" height="980" viewBox="0 0 1440 980" shape-rendering="crispEdges">
<rect x="0" y="0" width="1440" height="980" fill="#17283d" />
    <rect x="0" y="24" width="3" height="3" fill="#f2e4b8" opacity="0.7"/>
<rect x="97" y="77" width="3" height="3" fill="#f2e4b8" opacity="0.7"/>
<rect x="194" y="130" width="3" height="3" fill="#f2e4b8" opacity="0.7"/>
<rect x="291" y="183" width="3" height="3" fill="#f2e4b8" opacity="0.7"/>
<rect x="388" y="26" width="3" height="3" fill="#f2e4b8" opacity="0.7"/>
<rect x="485" y="79" width="3" height="3" fill="#f2e4b8" opacity="0.7"/>
<rect x="582" y="132" width="3" height="3" fill="#f2e4b8" opacity="0.7"/>
<rect x="679" y="185" width="3" height="3" fill="#f2e4b8" opacity="0.7"/>
<rect x="776" y="28" width="3" height="3" fill="#f2e4b8" opacity="0.7"/>
<rect x="873" y="81" width="3" height="3" fill="#f2e4b8" opacity="0.7"/>
<rect x="970" y="134" width="3" height="3" fill="#f2e4b8" opacity="0.7"/>
<rect x="1067" y="187" width="3" height="3" fill="#f2e4b8" opacity="0.7"/>
<rect x="1164" y="30" width="3" height="3" fill="#f2e4b8" opacity="0.7"/>
<rect x="1261" y="83" width="3" height="3" fill="#f2e4b8" opacity="0.7"/>
<rect x="1358" y="136" width="3" height="3" fill="#f2e4b8" opacity="0.7"/>
<rect x="15" y="189" width="3" height="3" fill="#f2e4b8" opacity="0.7"/>
<rect x="112" y="32" width="3" height="3" fill="#f2e4b8" opacity="0.7"/>
<rect x="209" y="85" width="3" height="3" fill="#f2e4b8" opacity="0.7"/>
<rect x="306" y="138" width="3" height="3" fill="#f2e4b8" opacity="0.7"/>
<rect x="403" y="191" width="3" height="3" fill="#f2e4b8" opacity="0.7"/>
<rect x="500" y="34" width="3" height="3" fill="#f2e4b8" opacity="0.7"/>
<rect x="597" y="87" width="3" height="3" fill="#f2e4b8" opacity="0.7"/>
<rect x="694" y="140" width="3" height="3" fill="#f2e4b8" opacity="0.7"/>
<rect x="791" y="193" width="3" height="3" fill="#f2e4b8" opacity="0.7"/>
<rect x="888" y="36" width="3" height="3" fill="#f2e4b8" opacity="0.7"/>
<rect x="985" y="89" width="3" height="3" fill="#f2e4b8" opacity="0.7"/>
<rect x="1082" y="142" width="3" height="3" fill="#f2e4b8" opacity="0.7"/>
<rect x="1179" y="195" width="3" height="3" fill="#f2e4b8" opacity="0.7"/>
<rect x="1276" y="38" width="3" height="3" fill="#f2e4b8" opacity="0.7"/>
<rect x="1373" y="91" width="3" height="3" fill="#f2e4b8" opacity="0.7"/>
<rect x="30" y="144" width="3" height="3" fill="#f2e4b8" opacity="0.7"/>
<rect x="127" y="197" width="3" height="3" fill="#f2e4b8" opacity="0.7"/>
<rect x="224" y="40" width="3" height="3" fill="#f2e4b8" opacity="0.7"/>
<rect x="321" y="93" width="3" height="3" fill="#f2e4b8" opacity="0.7"/>
<rect x="418" y="146" width="3" height="3" fill="#f2e4b8" opacity="0.7"/>
<rect x="515" y="199" width="3" height="3" fill="#f2e4b8" opacity="0.7"/>
<rect x="612" y="42" width="3" height="3" fill="#f2e4b8" opacity="0.7"/>
<rect x="709" y="95" width="3" height="3" fill="#f2e4b8" opacity="0.7"/>
<rect x="806" y="148" width="3" height="3" fill="#f2e4b8" opacity="0.7"/>
<rect x="903" y="201" width="3" height="3" fill="#f2e4b8" opacity="0.7"/>
<rect x="1000" y="44" width="3" height="3" fill="#f2e4b8" opacity="0.7"/>
<rect x="1097" y="97" width="3" height="3" fill="#f2e4b8" opacity="0.7"/>
    <ellipse cx="1060" cy="115" rx="58" ry="58" fill="#d7d9c9" opacity="0.9"/>
    <path d="M0 280 C180 190 300 260 460 205 C630 145 740 245 900 188 C1080 125 1210 220 1440 160 L1440 460 L0 460 Z" fill="#5f765f" opacity="0.55"/>
    <path d="M0 350 C260 270 420 335 650 265 C810 220 1040 350 1440 270 L1440 980 L0 980 Z" fill="#3f5542"/>
    <rect x="0" y="550" width="1440" height="430" fill="#69604f" />
    <g opacity="0.16">
      <rect x="0" y="550" width="3" height="430" fill="#604929" />
<rect x="48" y="550" width="3" height="430" fill="#604929" />
<rect x="96" y="550" width="3" height="430" fill="#604929" />
<rect x="144" y="550" width="3" height="430" fill="#604929" />
<rect x="192" y="550" width="3" height="430" fill="#604929" />
<rect x="240" y="550" width="3" height="430" fill="#604929" />
<rect x="288" y="550" width="3" height="430" fill="#604929" />
<rect x="336" y="550" width="3" height="430" fill="#604929" />
<rect x="384" y="550" width="3" height="430" fill="#604929" />
<rect x="432" y="550" width="3" height="430" fill="#604929" />
<rect x="480" y="550" width="3" height="430" fill="#604929" />
<rect x="528" y="550" width="3" height="430" fill="#604929" />
<rect x="576" y="550" width="3" height="430" fill="#604929" />
<rect x="624" y="550" width="3" height="430" fill="#604929" />
<rect x="672" y="550" width="3" height="430" fill="#604929" />
<rect x="720" y="550" width="3" height="430" fill="#604929" />
<rect x="768" y="550" width="3" height="430" fill="#604929" />
<rect x="816" y="550" width="3" height="430" fill="#604929" />
<rect x="864" y="550" width="3" height="430" fill="#604929" />
<rect x="912" y="550" width="3" height="430" fill="#604929" />
<rect x="960" y="550" width="3" height="430" fill="#604929" />
<rect x="1008" y="550" width="3" height="430" fill="#604929" />
<rect x="1056" y="550" width="3" height="430" fill="#604929" />
<rect x="1104" y="550" width="3" height="430" fill="#604929" />
<rect x="1152" y="550" width="3" height="430" fill="#604929" />
<rect x="1200" y="550" width="3" height="430" fill="#604929" />
<rect x="1248" y="550" width="3" height="430" fill="#604929" />
<rect x="1296" y="550" width="3" height="430" fill="#604929" />
<rect x="1344" y="550" width="3" height="430" fill="#604929" />
<rect x="1392" y="550" width="3" height="430" fill="#604929" />
<rect x="1440" y="550" width="3" height="430" fill="#604929" />
<rect x="1488" y="550" width="3" height="430" fill="#604929" />
      <rect x="0" y="570" width="1440" height="2" fill="#604929" />
<rect x="0" y="604" width="1440" height="2" fill="#604929" />
<rect x="0" y="638" width="1440" height="2" fill="#604929" />
<rect x="0" y="672" width="1440" height="2" fill="#604929" />
<rect x="0" y="706" width="1440" height="2" fill="#604929" />
<rect x="0" y="740" width="1440" height="2" fill="#604929" />
<rect x="0" y="774" width="1440" height="2" fill="#604929" />
<rect x="0" y="808" width="1440" height="2" fill="#604929" />
<rect x="0" y="842" width="1440" height="2" fill="#604929" />
<rect x="0" y="876" width="1440" height="2" fill="#604929" />
<rect x="0" y="910" width="1440" height="2" fill="#604929" />
<rect x="0" y="944" width="1440" height="2" fill="#604929" />
    </g>
    <path d="M560 910 L910 620 L980 650 L640 940 Z" fill="#9a6b43" opacity="0.82"/>
    <path d="M780 940 L1200 540 L1260 570 L850 960 Z" fill="#a37145" opacity="0.75"/>
    <rect x="510" y="350" width="820" height="550" fill="none" stroke="#5c4634" stroke-width="10"/>
    <rect x="522" y="362" width="796" height="526" fill="none" stroke="#d8bd79" stroke-width="3" opacity="0.75"/>
    <g opacity="1">
      <g transform="translate(560,388)"><rect x="0" y="0" width="8" height="34" fill="#4b2f22" /><rect x="-4" y="-10" width="16" height="12" fill="#ff9b45" /></g>
<g transform="translate(665,388)"><rect x="0" y="0" width="8" height="34" fill="#4b2f22" /><rect x="-4" y="-10" width="16" height="12" fill="#ff9b45" /></g>
<g transform="translate(770,388)"><rect x="0" y="0" width="8" height="34" fill="#4b2f22" /><rect x="-4" y="-10" width="16" height="12" fill="#ff9b45" /></g>
<g transform="translate(875,388)"><rect x="0" y="0" width="8" height="34" fill="#4b2f22" /><rect x="-4" y="-10" width="16" height="12" fill="#ff9b45" /></g>
<g transform="translate(980,388)"><rect x="0" y="0" width="8" height="34" fill="#4b2f22" /><rect x="-4" y="-10" width="16" height="12" fill="#ff9b45" /></g>
<g transform="translate(1085,388)"><rect x="0" y="0" width="8" height="34" fill="#4b2f22" /><rect x="-4" y="-10" width="16" height="12" fill="#ff9b45" /></g>
<g transform="translate(1190,388)"><rect x="0" y="0" width="8" height="34" fill="#4b2f22" /><rect x="-4" y="-10" width="16" height="12" fill="#ff9b45" /></g>
<g transform="translate(1295,388)"><rect x="0" y="0" width="8" height="34" fill="#4b2f22" /><rect x="-4" y="-10" width="16" height="12" fill="#ff9b45" /></g>
      <g transform="translate(540,846)"><rect x="0" y="0" width="8" height="34" fill="#4b2f22" /><rect x="-4" y="-10" width="16" height="12" fill="#ff9b45" /></g>
<g transform="translate(675,846)"><rect x="0" y="0" width="8" height="34" fill="#4b2f22" /><rect x="-4" y="-10" width="16" height="12" fill="#ff9b45" /></g>
<g transform="translate(810,846)"><rect x="0" y="0" width="8" height="34" fill="#4b2f22" /><rect x="-4" y="-10" width="16" height="12" fill="#ff9b45" /></g>
<g transform="translate(945,846)"><rect x="0" y="0" width="8" height="34" fill="#4b2f22" /><rect x="-4" y="-10" width="16" height="12" fill="#ff9b45" /></g>
<g transform="translate(1080,846)"><rect x="0" y="0" width="8" height="34" fill="#4b2f22" /><rect x="-4" y="-10" width="16" height="12" fill="#ff9b45" /></g>
<g transform="translate(1215,846)"><rect x="0" y="0" width="8" height="34" fill="#4b2f22" /><rect x="-4" y="-10" width="16" height="12" fill="#ff9b45" /></g>
    </g>
    <rect x="0" y="0" width="1440" height="980" fill="#101624" opacity="0.24"/>
</svg>
