<svg xmlns="http://www.w3.org/2000/svg" width="64" height="96" viewBox="0 0 64 96" shape-rendering="crispEdges">
<g transform=""><ellipse cx="18" cy="82" rx="6" ry="12" fill="#d6a34a" transform="rotate(-35 18 82)"/><ellipse cx="21" cy="73" rx="6" ry="12" fill="#d6a34a" transform="rotate(-32 21 73)"/><ellipse cx="24" cy="64" rx="6" ry="12" fill="#d6a34a" transform="rotate(-29 24 64)"/><ellipse cx="27" cy="55" rx="6" ry="12" fill="#d6a34a" transform="rotate(-26 27 55)"/><ellipse cx="30" cy="46" rx="6" ry="12" fill="#d6a34a" transform="rotate(-23 30 46)"/><ellipse cx="33" cy="37" rx="6" ry="12" fill="#d6a34a" transform="rotate(-20 33 37)"/><ellipse cx="36" cy="28" rx="6" ry="12" fill="#d6a34a" transform="rotate(-17 36 28)"/><ellipse cx="39" cy="19" rx="6" ry="12" fill="#d6a34a" transform="rotate(-14 39 19)"/><path d="M44 90 C18 70 12 36 20 8" fill="none" stroke="#b47a33" stroke-width="5"/></g>
</svg>
