<svg xmlns="http://www.w3.org/2000/svg" width="1600" height="900" viewBox="0 0 1600 900" shape-rendering="crispEdges">
<rect x="0" y="0" width="1600" height="900" fill="#182435" />
        <rect x="0" y="0" width="1600" height="330" fill="#2b221b" />
        <rect x="0" y="20" width="6" height="8" fill="#9c6042" opacity="0.86"/>
<rect x="37" y="39" width="6" height="8" fill="#3c5878" opacity="0.86"/>
<rect x="74" y="58" width="6" height="8" fill="#d2a451" opacity="0.86"/>
<rect x="111" y="77" width="6" height="8" fill="#6e4438" opacity="0.86"/>
<rect x="148" y="96" width="6" height="8" fill="#b98955" opacity="0.86"/>
<rect x="185" y="115" width="6" height="8" fill="#9c6042" opacity="0.86"/>
<rect x="222" y="134" width="6" height="8" fill="#3c5878" opacity="0.86"/>
<rect x="259" y="153" width="6" height="8" fill="#d2a451" opacity="0.86"/>
<rect x="296" y="172" width="6" height="8" fill="#6e4438" opacity="0.86"/>
<rect x="333" y="191" width="6" height="8" fill="#b98955" opacity="0.86"/>
<rect x="370" y="210" width="6" height="8" fill="#9c6042" opacity="0.86"/>
<rect x="407" y="229" width="6" height="8" fill="#3c5878" opacity="0.86"/>
<rect x="444" y="248" width="6" height="8" fill="#d2a451" opacity="0.86"/>
<rect x="481" y="267" width="6" height="8" fill="#6e4438" opacity="0.86"/>
<rect x="518" y="286" width="6" height="8" fill="#b98955" opacity="0.86"/>
<rect x="555" y="305" width="6" height="8" fill="#9c6042" opacity="0.86"/>
<rect x="592" y="34" width="6" height="8" fill="#3c5878" opacity="0.86"/>
<rect x="629" y="53" width="6" height="8" fill="#d2a451" opacity="0.86"/>
<rect x="666" y="72" width="6" height="8" fill="#6e4438" opacity="0.86"/>
<rect x="703" y="91" width="6" height="8" fill="#b98955" opacity="0.86"/>
<rect x="740" y="110" width="6" height="8" fill="#9c6042" opacity="0.86"/>
<rect x="777" y="129" width="6" height="8" fill="#3c5878" opacity="0.86"/>
<rect x="814" y="148" width="6" height="8" fill="#d2a451" opacity="0.86"/>
<rect x="851" y="167" width="6" height="8" fill="#6e4438" opacity="0.86"/>
<rect x="888" y="186" width="6" height="8" fill="#b98955" opacity="0.86"/>
<rect x="925" y="205" width="6" height="8" fill="#9c6042" opacity="0.86"/>
<rect x="962" y="224" width="6" height="8" fill="#3c5878" opacity="0.86"/>
<rect x="999" y="243" width="6" height="8" fill="#d2a451" opacity="0.86"/>
<rect x="1036" y="262" width="6" height="8" fill="#6e4438" opacity="0.86"/>
<rect x="1073" y="281" width="6" height="8" fill="#b98955" opacity="0.86"/>
<rect x="1110" y="300" width="6" height="8" fill="#9c6042" opacity="0.86"/>
<rect x="1147" y="29" width="6" height="8" fill="#3c5878" opacity="0.86"/>
<rect x="1184" y="48" width="6" height="8" fill="#d2a451" opacity="0.86"/>
<rect x="1221" y="67" width="6" height="8" fill="#6e4438" opacity="0.86"/>
<rect x="1258" y="86" width="6" height="8" fill="#b98955" opacity="0.86"/>
<rect x="1295" y="105" width="6" height="8" fill="#9c6042" opacity="0.86"/>
<rect x="1332" y="124" width="6" height="8" fill="#3c5878" opacity="0.86"/>
<rect x="1369" y="143" width="6" height="8" fill="#d2a451" opacity="0.86"/>
<rect x="1406" y="162" width="6" height="8" fill="#6e4438" opacity="0.86"/>
<rect x="1443" y="181" width="6" height="8" fill="#b98955" opacity="0.86"/>
<rect x="1480" y="200" width="6" height="8" fill="#9c6042" opacity="0.86"/>
<rect x="1517" y="219" width="6" height="8" fill="#3c5878" opacity="0.86"/>
<rect x="1554" y="238" width="6" height="8" fill="#d2a451" opacity="0.86"/>
<rect x="1591" y="257" width="6" height="8" fill="#6e4438" opacity="0.86"/>
<rect x="28" y="276" width="6" height="8" fill="#b98955" opacity="0.86"/>
<rect x="65" y="295" width="6" height="8" fill="#9c6042" opacity="0.86"/>
<rect x="102" y="24" width="6" height="8" fill="#3c5878" opacity="0.86"/>
<rect x="139" y="43" width="6" height="8" fill="#d2a451" opacity="0.86"/>
<rect x="176" y="62" width="6" height="8" fill="#6e4438" opacity="0.86"/>
<rect x="213" y="81" width="6" height="8" fill="#b98955" opacity="0.86"/>
<rect x="250" y="100" width="6" height="8" fill="#9c6042" opacity="0.86"/>
<rect x="287" y="119" width="6" height="8" fill="#3c5878" opacity="0.86"/>
<rect x="324" y="138" width="6" height="8" fill="#d2a451" opacity="0.86"/>
<rect x="361" y="157" width="6" height="8" fill="#6e4438" opacity="0.86"/>
<rect x="398" y="176" width="6" height="8" fill="#b98955" opacity="0.86"/>
<rect x="435" y="195" width="6" height="8" fill="#9c6042" opacity="0.86"/>
<rect x="472" y="214" width="6" height="8" fill="#3c5878" opacity="0.86"/>
<rect x="509" y="233" width="6" height="8" fill="#d2a451" opacity="0.86"/>
<rect x="546" y="252" width="6" height="8" fill="#6e4438" opacity="0.86"/>
<rect x="583" y="271" width="6" height="8" fill="#b98955" opacity="0.86"/>
<rect x="620" y="290" width="6" height="8" fill="#9c6042" opacity="0.86"/>
<rect x="657" y="309" width="6" height="8" fill="#3c5878" opacity="0.86"/>
<rect x="694" y="38" width="6" height="8" fill="#d2a451" opacity="0.86"/>
<rect x="731" y="57" width="6" height="8" fill="#6e4438" opacity="0.86"/>
<rect x="768" y="76" width="6" height="8" fill="#b98955" opacity="0.86"/>
<rect x="805" y="95" width="6" height="8" fill="#9c6042" opacity="0.86"/>
<rect x="842" y="114" width="6" height="8" fill="#3c5878" opacity="0.86"/>
<rect x="879" y="133" width="6" height="8" fill="#d2a451" opacity="0.86"/>
<rect x="916" y="152" width="6" height="8" fill="#6e4438" opacity="0.86"/>
<rect x="953" y="171" width="6" height="8" fill="#b98955" opacity="0.86"/>
<rect x="990" y="190" width="6" height="8" fill="#9c6042" opacity="0.86"/>
<rect x="1027" y="209" width="6" height="8" fill="#3c5878" opacity="0.86"/>
<rect x="1064" y="228" width="6" height="8" fill="#d2a451" opacity="0.86"/>
<rect x="1101" y="247" width="6" height="8" fill="#6e4438" opacity="0.86"/>
<rect x="1138" y="266" width="6" height="8" fill="#b98955" opacity="0.86"/>
<rect x="1175" y="285" width="6" height="8" fill="#9c6042" opacity="0.86"/>
<rect x="1212" y="304" width="6" height="8" fill="#3c5878" opacity="0.86"/>
<rect x="1249" y="33" width="6" height="8" fill="#d2a451" opacity="0.86"/>
<rect x="1286" y="52" width="6" height="8" fill="#6e4438" opacity="0.86"/>
<rect x="1323" y="71" width="6" height="8" fill="#b98955" opacity="0.86"/>
<rect x="1360" y="90" width="6" height="8" fill="#9c6042" opacity="0.86"/>
<rect x="1397" y="109" width="6" height="8" fill="#3c5878" opacity="0.86"/>
<rect x="1434" y="128" width="6" height="8" fill="#d2a451" opacity="0.86"/>
<rect x="1471" y="147" width="6" height="8" fill="#6e4438" opacity="0.86"/>
<rect x="1508" y="166" width="6" height="8" fill="#b98955" opacity="0.86"/>
<rect x="1545" y="185" width="6" height="8" fill="#9c6042" opacity="0.86"/>
<rect x="1582" y="204" width="6" height="8" fill="#3c5878" opacity="0.86"/>
<rect x="19" y="223" width="6" height="8" fill="#d2a451" opacity="0.86"/>
<rect x="56" y="242" width="6" height="8" fill="#6e4438" opacity="0.86"/>
<rect x="93" y="261" width="6" height="8" fill="#b98955" opacity="0.86"/>
<rect x="130" y="280" width="6" height="8" fill="#9c6042" opacity="0.86"/>
<rect x="167" y="299" width="6" height="8" fill="#3c5878" opacity="0.86"/>
<rect x="204" y="28" width="6" height="8" fill="#d2a451" opacity="0.86"/>
<rect x="241" y="47" width="6" height="8" fill="#6e4438" opacity="0.86"/>
<rect x="278" y="66" width="6" height="8" fill="#b98955" opacity="0.86"/>
<rect x="315" y="85" width="6" height="8" fill="#9c6042" opacity="0.86"/>
<rect x="352" y="104" width="6" height="8" fill="#3c5878" opacity="0.86"/>
<rect x="389" y="123" width="6" height="8" fill="#d2a451" opacity="0.86"/>
<rect x="426" y="142" width="6" height="8" fill="#6e4438" opacity="0.86"/>
<rect x="463" y="161" width="6" height="8" fill="#b98955" opacity="0.86"/>
<rect x="500" y="180" width="6" height="8" fill="#9c6042" opacity="0.86"/>
<rect x="537" y="199" width="6" height="8" fill="#3c5878" opacity="0.86"/>
<rect x="574" y="218" width="6" height="8" fill="#d2a451" opacity="0.86"/>
<rect x="611" y="237" width="6" height="8" fill="#6e4438" opacity="0.86"/>
<rect x="648" y="256" width="6" height="8" fill="#b98955" opacity="0.86"/>
<rect x="685" y="275" width="6" height="8" fill="#9c6042" opacity="0.86"/>
<rect x="722" y="294" width="6" height="8" fill="#3c5878" opacity="0.86"/>
<rect x="759" y="23" width="6" height="8" fill="#d2a451" opacity="0.86"/>
<rect x="796" y="42" width="6" height="8" fill="#6e4438" opacity="0.86"/>
<rect x="833" y="61" width="6" height="8" fill="#b98955" opacity="0.86"/>
<rect x="870" y="80" width="6" height="8" fill="#9c6042" opacity="0.86"/>
<rect x="907" y="99" width="6" height="8" fill="#3c5878" opacity="0.86"/>
<rect x="944" y="118" width="6" height="8" fill="#d2a451" opacity="0.86"/>
<rect x="981" y="137" width="6" height="8" fill="#6e4438" opacity="0.86"/>
<rect x="1018" y="156" width="6" height="8" fill="#b98955" opacity="0.86"/>
<rect x="1055" y="175" width="6" height="8" fill="#9c6042" opacity="0.86"/>
<rect x="1092" y="194" width="6" height="8" fill="#3c5878" opacity="0.86"/>
<rect x="1129" y="213" width="6" height="8" fill="#d2a451" opacity="0.86"/>
<rect x="1166" y="232" width="6" height="8" fill="#6e4438" opacity="0.86"/>
<rect x="1203" y="251" width="6" height="8" fill="#b98955" opacity="0.86"/>
<rect x="1240" y="270" width="6" height="8" fill="#9c6042" opacity="0.86"/>
<rect x="1277" y="289" width="6" height="8" fill="#3c5878" opacity="0.86"/>
<rect x="1314" y="308" width="6" height="8" fill="#d2a451" opacity="0.86"/>
<rect x="1351" y="37" width="6" height="8" fill="#6e4438" opacity="0.86"/>
<rect x="1388" y="56" width="6" height="8" fill="#b98955" opacity="0.86"/>
<rect x="1425" y="75" width="6" height="8" fill="#9c6042" opacity="0.86"/>
<rect x="1462" y="94" width="6" height="8" fill="#3c5878" opacity="0.86"/>
<rect x="1499" y="113" width="6" height="8" fill="#d2a451" opacity="0.86"/>
<rect x="1536" y="132" width="6" height="8" fill="#6e4438" opacity="0.86"/>
<rect x="1573" y="151" width="6" height="8" fill="#b98955" opacity="0.86"/>
<rect x="10" y="170" width="6" height="8" fill="#9c6042" opacity="0.86"/>
<rect x="47" y="189" width="6" height="8" fill="#3c5878" opacity="0.86"/>
<rect x="84" y="208" width="6" height="8" fill="#d2a451" opacity="0.86"/>
<rect x="121" y="227" width="6" height="8" fill="#6e4438" opacity="0.86"/>
<rect x="158" y="246" width="6" height="8" fill="#b98955" opacity="0.86"/>
<rect x="195" y="265" width="6" height="8" fill="#9c6042" opacity="0.86"/>
<rect x="232" y="284" width="6" height="8" fill="#3c5878" opacity="0.86"/>
<rect x="269" y="303" width="6" height="8" fill="#d2a451" opacity="0.86"/>
<rect x="306" y="32" width="6" height="8" fill="#6e4438" opacity="0.86"/>
<rect x="343" y="51" width="6" height="8" fill="#b98955" opacity="0.86"/>
<rect x="380" y="70" width="6" height="8" fill="#9c6042" opacity="0.86"/>
<rect x="417" y="89" width="6" height="8" fill="#3c5878" opacity="0.86"/>
<rect x="454" y="108" width="6" height="8" fill="#d2a451" opacity="0.86"/>
<rect x="491" y="127" width="6" height="8" fill="#6e4438" opacity="0.86"/>
<rect x="528" y="146" width="6" height="8" fill="#b98955" opacity="0.86"/>
<rect x="565" y="165" width="6" height="8" fill="#9c6042" opacity="0.86"/>
<rect x="602" y="184" width="6" height="8" fill="#3c5878" opacity="0.86"/>
<rect x="639" y="203" width="6" height="8" fill="#d2a451" opacity="0.86"/>
<rect x="676" y="222" width="6" height="8" fill="#6e4438" opacity="0.86"/>
<rect x="713" y="241" width="6" height="8" fill="#b98955" opacity="0.86"/>
<rect x="750" y="260" width="6" height="8" fill="#9c6042" opacity="0.86"/>
<rect x="787" y="279" width="6" height="8" fill="#3c5878" opacity="0.86"/>
<rect x="824" y="298" width="6" height="8" fill="#d2a451" opacity="0.86"/>
<rect x="861" y="27" width="6" height="8" fill="#6e4438" opacity="0.86"/>
<rect x="898" y="46" width="6" height="8" fill="#b98955" opacity="0.86"/>
<rect x="935" y="65" width="6" height="8" fill="#9c6042" opacity="0.86"/>
<rect x="972" y="84" width="6" height="8" fill="#3c5878" opacity="0.86"/>
<rect x="1009" y="103" width="6" height="8" fill="#d2a451" opacity="0.86"/>
<rect x="1046" y="122" width="6" height="8" fill="#6e4438" opacity="0.86"/>
<rect x="1083" y="141" width="6" height="8" fill="#b98955" opacity="0.86"/>
<rect x="1120" y="160" width="6" height="8" fill="#9c6042" opacity="0.86"/>
<rect x="1157" y="179" width="6" height="8" fill="#3c5878" opacity="0.86"/>
<rect x="1194" y="198" width="6" height="8" fill="#d2a451" opacity="0.86"/>
<rect x="1231" y="217" width="6" height="8" fill="#6e4438" opacity="0.86"/>
<rect x="1268" y="236" width="6" height="8" fill="#b98955" opacity="0.86"/>
<rect x="1305" y="255" width="6" height="8" fill="#9c6042" opacity="0.86"/>
<rect x="1342" y="274" width="6" height="8" fill="#3c5878" opacity="0.86"/>
<rect x="1379" y="293" width="6" height="8" fill="#d2a451" opacity="0.86"/>
<rect x="1416" y="22" width="6" height="8" fill="#6e4438" opacity="0.86"/>
<rect x="1453" y="41" width="6" height="8" fill="#b98955" opacity="0.86"/>
<rect x="1490" y="60" width="6" height="8" fill="#9c6042" opacity="0.86"/>
<rect x="1527" y="79" width="6" height="8" fill="#3c5878" opacity="0.86"/>
<rect x="1564" y="98" width="6" height="8" fill="#d2a451" opacity="0.86"/>
<rect x="1" y="117" width="6" height="8" fill="#6e4438" opacity="0.86"/>
<rect x="38" y="136" width="6" height="8" fill="#b98955" opacity="0.86"/>
<rect x="75" y="155" width="6" height="8" fill="#9c6042" opacity="0.86"/>
<rect x="112" y="174" width="6" height="8" fill="#3c5878" opacity="0.86"/>
<rect x="149" y="193" width="6" height="8" fill="#d2a451" opacity="0.86"/>
<rect x="186" y="212" width="6" height="8" fill="#6e4438" opacity="0.86"/>
<rect x="223" y="231" width="6" height="8" fill="#b98955" opacity="0.86"/>
<rect x="260" y="250" width="6" height="8" fill="#9c6042" opacity="0.86"/>
<rect x="297" y="269" width="6" height="8" fill="#3c5878" opacity="0.86"/>
<rect x="334" y="288" width="6" height="8" fill="#d2a451" opacity="0.86"/>
<rect x="371" y="307" width="6" height="8" fill="#6e4438" opacity="0.86"/>
<rect x="408" y="36" width="6" height="8" fill="#b98955" opacity="0.86"/>
<rect x="445" y="55" width="6" height="8" fill="#9c6042" opacity="0.86"/>
<rect x="482" y="74" width="6" height="8" fill="#3c5878" opacity="0.86"/>
<rect x="519" y="93" width="6" height="8" fill="#d2a451" opacity="0.86"/>
<rect x="556" y="112" width="6" height="8" fill="#6e4438" opacity="0.86"/>
<rect x="593" y="131" width="6" height="8" fill="#b98955" opacity="0.86"/>
<rect x="630" y="150" width="6" height="8" fill="#9c6042" opacity="0.86"/>
<rect x="667" y="169" width="6" height="8" fill="#3c5878" opacity="0.86"/>
<rect x="704" y="188" width="6" height="8" fill="#d2a451" opacity="0.86"/>
<rect x="741" y="207" width="6" height="8" fill="#6e4438" opacity="0.86"/>
<rect x="778" y="226" width="6" height="8" fill="#b98955" opacity="0.86"/>
<rect x="815" y="245" width="6" height="8" fill="#9c6042" opacity="0.86"/>
<rect x="852" y="264" width="6" height="8" fill="#3c5878" opacity="0.86"/>
<rect x="889" y="283" width="6" height="8" fill="#d2a451" opacity="0.86"/>
<rect x="926" y="302" width="6" height="8" fill="#6e4438" opacity="0.86"/>
<rect x="963" y="31" width="6" height="8" fill="#b98955" opacity="0.86"/>
<rect x="1000" y="50" width="6" height="8" fill="#9c6042" opacity="0.86"/>
<rect x="1037" y="69" width="6" height="8" fill="#3c5878" opacity="0.86"/>
<rect x="1074" y="88" width="6" height="8" fill="#d2a451" opacity="0.86"/>
<rect x="1111" y="107" width="6" height="8" fill="#6e4438" opacity="0.86"/>
<rect x="1148" y="126" width="6" height="8" fill="#b98955" opacity="0.86"/>
<rect x="1185" y="145" width="6" height="8" fill="#9c6042" opacity="0.86"/>
<rect x="1222" y="164" width="6" height="8" fill="#3c5878" opacity="0.86"/>
<rect x="1259" y="183" width="6" height="8" fill="#d2a451" opacity="0.86"/>
<rect x="1296" y="202" width="6" height="8" fill="#6e4438" opacity="0.86"/>
<rect x="1333" y="221" width="6" height="8" fill="#b98955" opacity="0.86"/>
<rect x="1370" y="240" width="6" height="8" fill="#9c6042" opacity="0.86"/>
<rect x="1407" y="259" width="6" height="8" fill="#3c5878" opacity="0.86"/>
<rect x="1444" y="278" width="6" height="8" fill="#d2a451" opacity="0.86"/>
<rect x="1481" y="297" width="6" height="8" fill="#6e4438" opacity="0.86"/>
<rect x="1518" y="26" width="6" height="8" fill="#b98955" opacity="0.86"/>
<rect x="1555" y="45" width="6" height="8" fill="#9c6042" opacity="0.86"/>
<rect x="1592" y="64" width="6" height="8" fill="#3c5878" opacity="0.86"/>
<rect x="29" y="83" width="6" height="8" fill="#d2a451" opacity="0.86"/>
<rect x="66" y="102" width="6" height="8" fill="#6e4438" opacity="0.86"/>
<rect x="103" y="121" width="6" height="8" fill="#b98955" opacity="0.86"/>
        <rect x="0" y="330" width="1600" height="90" fill="#79634f" />
        <rect x="0" y="420" width="1600" height="480" fill="#b88455" />
        <ellipse cx="800" cy="660" rx="620" ry="190" fill="#c59665"/>
        <ellipse cx="800" cy="660" rx="540" ry="150" fill="#b98658" opacity="0.8"/>
        <rect x="690" y="110" width="220" height="130" fill="#7b4134" stroke="#b47a33" stroke-width="8"/>
        <rect x="710" y="90" width="180" height="36" fill="#a23f30" />
        <g transform="translate(760,130)"><rect x="0" y="0" width="28" height="46" fill="#9e3c2f" stroke="#d4a740" stroke-width="3"/><path d="M0 46 L14 34 L28 46 Z" fill="#6b2923"/><rect x="12" y="7" width="4" height="24" fill="#d4a740"/><rect x="6" y="15" width="16" height="4" fill="#d4a740"/></g>
</svg>
