<svg xmlns="http://www.w3.org/2000/svg" width="320" height="240" viewBox="0 0 320 240" shape-rendering="crispEdges">
<ellipse cx="160" cy="208" rx="118" ry="16" fill="#3c2b20" opacity="0.24"/>
      <ellipse cx="160" cy="112" rx="128" ry="86" fill="#796858"/>
      <ellipse cx="160" cy="112" rx="104" ry="66" fill="#e0c69c"/>
      <ellipse cx="160" cy="112" rx="72" ry="42" fill="#bd8b58"/>
      <rect x="52" y="62" width="6" height="8" fill="#9c6042" opacity="0.86"/>
<rect x="89" y="81" width="6" height="8" fill="#3c5878" opacity="0.86"/>
<rect x="126" y="100" width="6" height="8" fill="#d2a451" opacity="0.86"/>
<rect x="163" y="119" width="6" height="8" fill="#6e4438" opacity="0.86"/>
<rect x="200" y="72" width="6" height="8" fill="#b98955" opacity="0.86"/>
<rect x="237" y="91" width="6" height="8" fill="#9c6042" opacity="0.86"/>
<rect x="58" y="110" width="6" height="8" fill="#3c5878" opacity="0.86"/>
<rect x="95" y="63" width="6" height="8" fill="#d2a451" opacity="0.86"/>
<rect x="132" y="82" width="6" height="8" fill="#6e4438" opacity="0.86"/>
<rect x="169" y="101" width="6" height="8" fill="#b98955" opacity="0.86"/>
<rect x="206" y="120" width="6" height="8" fill="#9c6042" opacity="0.86"/>
<rect x="243" y="73" width="6" height="8" fill="#3c5878" opacity="0.86"/>
<rect x="64" y="92" width="6" height="8" fill="#d2a451" opacity="0.86"/>
<rect x="101" y="111" width="6" height="8" fill="#6e4438" opacity="0.86"/>
<rect x="138" y="64" width="6" height="8" fill="#b98955" opacity="0.86"/>
<rect x="175" y="83" width="6" height="8" fill="#9c6042" opacity="0.86"/>
<rect x="212" y="102" width="6" height="8" fill="#3c5878" opacity="0.86"/>
<rect x="249" y="121" width="6" height="8" fill="#d2a451" opacity="0.86"/>
<rect x="70" y="74" width="6" height="8" fill="#6e4438" opacity="0.86"/>
<rect x="107" y="93" width="6" height="8" fill="#b98955" opacity="0.86"/>
<rect x="144" y="112" width="6" height="8" fill="#9c6042" opacity="0.86"/>
<rect x="181" y="65" width="6" height="8" fill="#3c5878" opacity="0.86"/>
<rect x="218" y="84" width="6" height="8" fill="#d2a451" opacity="0.86"/>
<rect x="255" y="103" width="6" height="8" fill="#6e4438" opacity="0.86"/>
<rect x="76" y="122" width="6" height="8" fill="#b98955" opacity="0.86"/>
<rect x="113" y="75" width="6" height="8" fill="#9c6042" opacity="0.86"/>
<rect x="150" y="94" width="6" height="8" fill="#3c5878" opacity="0.86"/>
<rect x="187" y="113" width="6" height="8" fill="#d2a451" opacity="0.86"/>
<rect x="224" y="66" width="6" height="8" fill="#6e4438" opacity="0.86"/>
<rect x="261" y="85" width="6" height="8" fill="#b98955" opacity="0.86"/>
<rect x="82" y="104" width="6" height="8" fill="#9c6042" opacity="0.86"/>
<rect x="119" y="123" width="6" height="8" fill="#3c5878" opacity="0.86"/>
<rect x="156" y="76" width="6" height="8" fill="#d2a451" opacity="0.86"/>
<rect x="193" y="95" width="6" height="8" fill="#6e4438" opacity="0.86"/>
<rect x="230" y="114" width="6" height="8" fill="#b98955" opacity="0.86"/>
<rect x="267" y="67" width="6" height="8" fill="#9c6042" opacity="0.86"/>
<rect x="88" y="86" width="6" height="8" fill="#3c5878" opacity="0.86"/>
<rect x="125" y="105" width="6" height="8" fill="#d2a451" opacity="0.86"/>
<rect x="162" y="124" width="6" height="8" fill="#6e4438" opacity="0.86"/>
<rect x="199" y="77" width="6" height="8" fill="#b98955" opacity="0.86"/>
<rect x="236" y="96" width="6" height="8" fill="#9c6042" opacity="0.86"/>
<rect x="57" y="115" width="6" height="8" fill="#3c5878" opacity="0.86"/>
<rect x="94" y="68" width="6" height="8" fill="#d2a451" opacity="0.86"/>
<rect x="131" y="87" width="6" height="8" fill="#6e4438" opacity="0.86"/>
<rect x="168" y="106" width="6" height="8" fill="#b98955" opacity="0.86"/>
<rect x="205" y="125" width="6" height="8" fill="#9c6042" opacity="0.86"/>
<rect x="242" y="78" width="6" height="8" fill="#3c5878" opacity="0.86"/>
<rect x="63" y="97" width="6" height="8" fill="#d2a451" opacity="0.86"/>
<rect x="100" y="116" width="6" height="8" fill="#6e4438" opacity="0.86"/>
<rect x="137" y="69" width="6" height="8" fill="#b98955" opacity="0.86"/>
<rect x="174" y="88" width="6" height="8" fill="#9c6042" opacity="0.86"/>
<rect x="211" y="107" width="6" height="8" fill="#3c5878" opacity="0.86"/>
<rect x="248" y="126" width="6" height="8" fill="#d2a451" opacity="0.86"/>
<rect x="69" y="79" width="6" height="8" fill="#6e4438" opacity="0.86"/>
<rect x="106" y="98" width="6" height="8" fill="#b98955" opacity="0.86"/>
<rect x="143" y="117" width="6" height="8" fill="#9c6042" opacity="0.86"/>
<rect x="180" y="70" width="6" height="8" fill="#3c5878" opacity="0.86"/>
<rect x="217" y="89" width="6" height="8" fill="#d2a451" opacity="0.86"/>
<rect x="254" y="108" width="6" height="8" fill="#6e4438" opacity="0.86"/>
<rect x="75" y="127" width="6" height="8" fill="#b98955" opacity="0.86"/>
<rect x="112" y="80" width="6" height="8" fill="#9c6042" opacity="0.86"/>
<rect x="149" y="99" width="6" height="8" fill="#3c5878" opacity="0.86"/>
<rect x="186" y="118" width="6" height="8" fill="#d2a451" opacity="0.86"/>
<rect x="223" y="71" width="6" height="8" fill="#6e4438" opacity="0.86"/>
<rect x="260" y="90" width="6" height="8" fill="#b98955" opacity="0.86"/>
<rect x="81" y="109" width="6" height="8" fill="#9c6042" opacity="0.86"/>
<rect x="118" y="62" width="6" height="8" fill="#3c5878" opacity="0.86"/>
<rect x="155" y="81" width="6" height="8" fill="#d2a451" opacity="0.86"/>
<rect x="192" y="100" width="6" height="8" fill="#6e4438" opacity="0.86"/>
<rect x="229" y="119" width="6" height="8" fill="#b98955" opacity="0.86"/>
<rect x="266" y="72" width="6" height="8" fill="#9c6042" opacity="0.86"/>
<rect x="87" y="91" width="6" height="8" fill="#3c5878" opacity="0.86"/>
<rect x="124" y="110" width="6" height="8" fill="#d2a451" opacity="0.86"/>
<rect x="161" y="63" width="6" height="8" fill="#6e4438" opacity="0.86"/>
<rect x="198" y="82" width="6" height="8" fill="#b98955" opacity="0.86"/>
<rect x="235" y="101" width="6" height="8" fill="#9c6042" opacity="0.86"/>
<rect x="56" y="120" width="6" height="8" fill="#3c5878" opacity="0.86"/>
<rect x="93" y="73" width="6" height="8" fill="#d2a451" opacity="0.86"/>
<rect x="130" y="92" width="6" height="8" fill="#6e4438" opacity="0.86"/>
<rect x="167" y="111" width="6" height="8" fill="#b98955" opacity="0.86"/>
<rect x="204" y="64" width="6" height="8" fill="#9c6042" opacity="0.86"/>
<rect x="241" y="83" width="6" height="8" fill="#3c5878" opacity="0.86"/>
<rect x="62" y="102" width="6" height="8" fill="#d2a451" opacity="0.86"/>
<rect x="99" y="121" width="6" height="8" fill="#6e4438" opacity="0.86"/>
<rect x="136" y="74" width="6" height="8" fill="#b98955" opacity="0.86"/>
<rect x="173" y="93" width="6" height="8" fill="#9c6042" opacity="0.86"/>
<rect x="210" y="112" width="6" height="8" fill="#3c5878" opacity="0.86"/>
<rect x="247" y="65" width="6" height="8" fill="#d2a451" opacity="0.86"/>
<rect x="68" y="84" width="6" height="8" fill="#6e4438" opacity="0.86"/>
<rect x="105" y="103" width="6" height="8" fill="#b98955" opacity="0.86"/>
<rect x="142" y="122" width="6" height="8" fill="#9c6042" opacity="0.86"/>
<rect x="179" y="75" width="6" height="8" fill="#3c5878" opacity="0.86"/>
<rect x="216" y="94" width="6" height="8" fill="#d2a451" opacity="0.86"/>
<rect x="253" y="113" width="6" height="8" fill="#6e4438" opacity="0.86"/>
<rect x="74" y="66" width="6" height="8" fill="#b98955" opacity="0.86"/>
<rect x="111" y="85" width="6" height="8" fill="#9c6042" opacity="0.86"/>
<rect x="148" y="104" width="6" height="8" fill="#3c5878" opacity="0.86"/>
<rect x="185" y="123" width="6" height="8" fill="#d2a451" opacity="0.86"/>
<rect x="222" y="76" width="6" height="8" fill="#6e4438" opacity="0.86"/>
<rect x="259" y="95" width="6" height="8" fill="#b98955" opacity="0.86"/>
<rect x="80" y="114" width="6" height="8" fill="#9c6042" opacity="0.86"/>
<rect x="117" y="67" width="6" height="8" fill="#3c5878" opacity="0.86"/>
<rect x="154" y="86" width="6" height="8" fill="#d2a451" opacity="0.86"/>
<rect x="191" y="105" width="6" height="8" fill="#6e4438" opacity="0.86"/>
<rect x="228" y="124" width="6" height="8" fill="#b98955" opacity="0.86"/>
<rect x="265" y="77" width="6" height="8" fill="#9c6042" opacity="0.86"/>
<rect x="86" y="96" width="6" height="8" fill="#3c5878" opacity="0.86"/>
<rect x="123" y="115" width="6" height="8" fill="#d2a451" opacity="0.86"/>
<rect x="160" y="68" width="6" height="8" fill="#6e4438" opacity="0.86"/>
<rect x="197" y="87" width="6" height="8" fill="#b98955" opacity="0.86"/>
<rect x="234" y="106" width="6" height="8" fill="#9c6042" opacity="0.86"/>
<rect x="55" y="125" width="6" height="8" fill="#3c5878" opacity="0.86"/>
<rect x="92" y="78" width="6" height="8" fill="#d2a451" opacity="0.86"/>
<rect x="129" y="97" width="6" height="8" fill="#6e4438" opacity="0.86"/>
<rect x="166" y="116" width="6" height="8" fill="#b98955" opacity="0.86"/>
<rect x="203" y="69" width="6" height="8" fill="#9c6042" opacity="0.86"/>
<rect x="240" y="88" width="6" height="8" fill="#3c5878" opacity="0.86"/>
<rect x="61" y="107" width="6" height="8" fill="#d2a451" opacity="0.86"/>
<rect x="98" y="126" width="6" height="8" fill="#6e4438" opacity="0.86"/>
<rect x="135" y="79" width="6" height="8" fill="#b98955" opacity="0.86"/>
<rect x="172" y="98" width="6" height="8" fill="#9c6042" opacity="0.86"/>
<rect x="209" y="117" width="6" height="8" fill="#3c5878" opacity="0.86"/>
<rect x="246" y="70" width="6" height="8" fill="#d2a451" opacity="0.86"/>
<rect x="67" y="89" width="6" height="8" fill="#6e4438" opacity="0.86"/>
<rect x="104" y="108" width="6" height="8" fill="#b98955" opacity="0.86"/>
<rect x="141" y="127" width="6" height="8" fill="#9c6042" opacity="0.86"/>
<rect x="178" y="80" width="6" height="8" fill="#3c5878" opacity="0.86"/>
<rect x="215" y="99" width="6" height="8" fill="#d2a451" opacity="0.86"/>
<rect x="252" y="118" width="6" height="8" fill="#6e4438" opacity="0.86"/>
<rect x="73" y="71" width="6" height="8" fill="#b98955" opacity="0.86"/>
<rect x="110" y="90" width="6" height="8" fill="#9c6042" opacity="0.86"/>
<rect x="147" y="109" width="6" height="8" fill="#3c5878" opacity="0.86"/>
<rect x="184" y="62" width="6" height="8" fill="#d2a451" opacity="0.86"/>
<rect x="221" y="81" width="6" height="8" fill="#6e4438" opacity="0.86"/>
<rect x="258" y="100" width="6" height="8" fill="#b98955" opacity="0.86"/>
<rect x="79" y="119" width="6" height="8" fill="#9c6042" opacity="0.86"/>
<rect x="116" y="72" width="6" height="8" fill="#3c5878" opacity="0.86"/>
<rect x="153" y="91" width="6" height="8" fill="#d2a451" opacity="0.86"/>
<rect x="190" y="110" width="6" height="8" fill="#6e4438" opacity="0.86"/>
<rect x="227" y="63" width="6" height="8" fill="#b98955" opacity="0.86"/>
<rect x="264" y="82" width="6" height="8" fill="#9c6042" opacity="0.86"/>
<rect x="85" y="101" width="6" height="8" fill="#3c5878" opacity="0.86"/>
<rect x="122" y="120" width="6" height="8" fill="#d2a451" opacity="0.86"/>
<rect x="159" y="73" width="6" height="8" fill="#6e4438" opacity="0.86"/>
<rect x="196" y="92" width="6" height="8" fill="#b98955" opacity="0.86"/>
<rect x="233" y="111" width="6" height="8" fill="#9c6042" opacity="0.86"/>
<rect x="54" y="64" width="6" height="8" fill="#3c5878" opacity="0.86"/>
<rect x="91" y="83" width="6" height="8" fill="#d2a451" opacity="0.86"/>
<rect x="128" y="102" width="6" height="8" fill="#6e4438" opacity="0.86"/>
<rect x="165" y="121" width="6" height="8" fill="#b98955" opacity="0.86"/>
<rect x="202" y="74" width="6" height="8" fill="#9c6042" opacity="0.86"/>
<rect x="239" y="93" width="6" height="8" fill="#3c5878" opacity="0.86"/>
<rect x="60" y="112" width="6" height="8" fill="#d2a451" opacity="0.86"/>
<rect x="97" y="65" width="6" height="8" fill="#6e4438" opacity="0.86"/>
<rect x="134" y="84" width="6" height="8" fill="#b98955" opacity="0.86"/>
<rect x="171" y="103" width="6" height="8" fill="#9c6042" opacity="0.86"/>
<rect x="208" y="122" width="6" height="8" fill="#3c5878" opacity="0.86"/>
<rect x="245" y="75" width="6" height="8" fill="#d2a451" opacity="0.86"/>
<rect x="66" y="94" width="6" height="8" fill="#6e4438" opacity="0.86"/>
<rect x="103" y="113" width="6" height="8" fill="#b98955" opacity="0.86"/>
<rect x="140" y="66" width="6" height="8" fill="#9c6042" opacity="0.86"/>
<rect x="177" y="85" width="6" height="8" fill="#3c5878" opacity="0.86"/>
<rect x="214" y="104" width="6" height="8" fill="#d2a451" opacity="0.86"/>
<rect x="251" y="123" width="6" height="8" fill="#6e4438" opacity="0.86"/>
<rect x="72" y="76" width="6" height="8" fill="#b98955" opacity="0.86"/>
<rect x="109" y="95" width="6" height="8" fill="#9c6042" opacity="0.86"/>
<rect x="146" y="114" width="6" height="8" fill="#3c5878" opacity="0.86"/>
<rect x="183" y="67" width="6" height="8" fill="#d2a451" opacity="0.86"/>
<rect x="220" y="86" width="6" height="8" fill="#6e4438" opacity="0.86"/>
<rect x="257" y="105" width="6" height="8" fill="#b98955" opacity="0.86"/>
<rect x="78" y="124" width="6" height="8" fill="#9c6042" opacity="0.86"/>
<rect x="115" y="77" width="6" height="8" fill="#3c5878" opacity="0.86"/>
<rect x="152" y="96" width="6" height="8" fill="#d2a451" opacity="0.86"/>
<rect x="189" y="115" width="6" height="8" fill="#6e4438" opacity="0.86"/>
<rect x="226" y="68" width="6" height="8" fill="#b98955" opacity="0.86"/>
<rect x="263" y="87" width="6" height="8" fill="#9c6042" opacity="0.86"/>
<rect x="84" y="106" width="6" height="8" fill="#3c5878" opacity="0.86"/>
<rect x="121" y="125" width="6" height="8" fill="#d2a451" opacity="0.86"/>
<rect x="158" y="78" width="6" height="8" fill="#6e4438" opacity="0.86"/>
<rect x="195" y="97" width="6" height="8" fill="#b98955" opacity="0.86"/>
<rect x="232" y="116" width="6" height="8" fill="#9c6042" opacity="0.86"/>
<rect x="53" y="69" width="6" height="8" fill="#3c5878" opacity="0.86"/>
<rect x="90" y="88" width="6" height="8" fill="#d2a451" opacity="0.86"/>
<rect x="127" y="107" width="6" height="8" fill="#6e4438" opacity="0.86"/>
<rect x="164" y="126" width="6" height="8" fill="#b98955" opacity="0.86"/>
<rect x="201" y="79" width="6" height="8" fill="#9c6042" opacity="0.86"/>
<rect x="238" y="98" width="6" height="8" fill="#3c5878" opacity="0.86"/>
<rect x="59" y="117" width="6" height="8" fill="#d2a451" opacity="0.86"/>
<rect x="96" y="70" width="6" height="8" fill="#6e4438" opacity="0.86"/>
<rect x="133" y="89" width="6" height="8" fill="#b98955" opacity="0.86"/>
<rect x="170" y="108" width="6" height="8" fill="#9c6042" opacity="0.86"/>
<rect x="207" y="127" width="6" height="8" fill="#3c5878" opacity="0.86"/>
<rect x="244" y="80" width="6" height="8" fill="#d2a451" opacity="0.86"/>
<rect x="65" y="99" width="6" height="8" fill="#6e4438" opacity="0.86"/>
<rect x="102" y="118" width="6" height="8" fill="#b98955" opacity="0.86"/>
<rect x="139" y="71" width="6" height="8" fill="#9c6042" opacity="0.86"/>
<rect x="176" y="90" width="6" height="8" fill="#3c5878" opacity="0.86"/>
<rect x="213" y="109" width="6" height="8" fill="#d2a451" opacity="0.86"/>
<rect x="250" y="62" width="6" height="8" fill="#6e4438" opacity="0.86"/>
<rect x="71" y="81" width="6" height="8" fill="#b98955" opacity="0.86"/>
<rect x="108" y="100" width="6" height="8" fill="#9c6042" opacity="0.86"/>
<rect x="145" y="119" width="6" height="8" fill="#3c5878" opacity="0.86"/>
<rect x="182" y="72" width="6" height="8" fill="#d2a451" opacity="0.86"/>
<rect x="219" y="91" width="6" height="8" fill="#6e4438" opacity="0.86"/>
<rect x="256" y="110" width="6" height="8" fill="#b98955" opacity="0.86"/>
<rect x="77" y="63" width="6" height="8" fill="#9c6042" opacity="0.86"/>
<rect x="114" y="82" width="6" height="8" fill="#3c5878" opacity="0.86"/>
<rect x="151" y="101" width="6" height="8" fill="#d2a451" opacity="0.86"/>
<rect x="188" y="120" width="6" height="8" fill="#6e4438" opacity="0.86"/>
<rect x="225" y="73" width="6" height="8" fill="#b98955" opacity="0.86"/>
<rect x="262" y="92" width="6" height="8" fill="#9c6042" opacity="0.86"/>
<rect x="83" y="111" width="6" height="8" fill="#3c5878" opacity="0.86"/>
<rect x="120" y="64" width="6" height="8" fill="#d2a451" opacity="0.86"/>
<rect x="157" y="83" width="6" height="8" fill="#6e4438" opacity="0.86"/>
<rect x="194" y="102" width="6" height="8" fill="#b98955" opacity="0.86"/>
<rect x="231" y="121" width="6" height="8" fill="#9c6042" opacity="0.86"/>
<rect x="52" y="74" width="6" height="8" fill="#3c5878" opacity="0.86"/>
<rect x="89" y="93" width="6" height="8" fill="#d2a451" opacity="0.86"/>
<rect x="126" y="112" width="6" height="8" fill="#6e4438" opacity="0.86"/>
<rect x="163" y="65" width="6" height="8" fill="#b98955" opacity="0.86"/>
      <rect x="74" y="186" width="172" height="18" fill="#5e4938" />
</svg>
