<svg xmlns="http://www.w3.org/2000/svg" width="256" height="192" viewBox="0 0 256 192" shape-rendering="crispEdges">
<ellipse cx="128" cy="176" rx="88" ry="12" fill="#3c2b20" opacity="0.24"/>
    <rect x="42" y="67" width="172" height="109" fill="#cf9b66" stroke="#60432d" stroke-width="8"/>
    <path d="M24 77 L128 21 L232 77 L212 99 L44 99 Z" fill="#bf5b35" stroke="#60432d" stroke-width="8"/>
    <rect x="108" y="132" width="40" height="44" fill="#60432d" />
    <rect x="58" y="105" width="12" height="66" fill="#9a6536" /><rect x="54" y="99" width="20" height="8" fill="#60432d" /><rect x="54" y="168" width="20" height="8" fill="#60432d" />
<rect x="88" y="105" width="12" height="66" fill="#9a6536" /><rect x="84" y="99" width="20" height="8" fill="#60432d" /><rect x="84" y="168" width="20" height="8" fill="#60432d" />
<rect x="166" y="105" width="12" height="66" fill="#9a6536" /><rect x="162" y="99" width="20" height="8" fill="#60432d" /><rect x="162" y="168" width="20" height="8" fill="#60432d" />
<rect x="196" y="105" width="12" height="66" fill="#9a6536" /><rect x="192" y="99" width="20" height="8" fill="#60432d" /><rect x="192" y="168" width="20" height="8" fill="#60432d" />
    
    
    
    <rect x="34" y="146" width="28" height="20" fill="#8f6238" /><ellipse cx="204" cy="145" rx="15" ry="20" fill="#7c5231" /><rect x="198" y="98" width="16" height="28" fill="#4a372b" /><ellipse cx="206" cy="92" rx="24" ry="11" fill="#3b3229" />
</svg>
