<svg xmlns="http://www.w3.org/2000/svg" width="256" height="192" viewBox="0 0 256 192" shape-rendering="crispEdges">
<ellipse cx="128" cy="176" rx="88" ry="12" fill="#3c2b20" opacity="0.24"/>
    <rect x="42" y="67" width="172" height="109" fill="#d7b179" stroke="#60442f" stroke-width="8"/>
    <path d="M24 77 L128 21 L232 77 L212 99 L44 99 Z" fill="#a84532" stroke="#60442f" stroke-width="8"/>
    <rect x="108" y="132" width="40" height="44" fill="#60442f" />
    <rect x="58" y="105" width="12" height="66" fill="#efd9a2" /><rect x="54" y="99" width="20" height="8" fill="#60442f" /><rect x="54" y="168" width="20" height="8" fill="#60442f" />
<rect x="88" y="105" width="12" height="66" fill="#efd9a2" /><rect x="84" y="99" width="20" height="8" fill="#60442f" /><rect x="84" y="168" width="20" height="8" fill="#60442f" />
<rect x="166" y="105" width="12" height="66" fill="#efd9a2" /><rect x="162" y="99" width="20" height="8" fill="#60442f" /><rect x="162" y="168" width="20" height="8" fill="#60442f" />
<rect x="196" y="105" width="12" height="66" fill="#efd9a2" /><rect x="192" y="99" width="20" height="8" fill="#60442f" /><rect x="192" y="168" width="20" height="8" fill="#60442f" />
    
    
    
    <g transform="translate(36,96)"><rect x="0" y="0" width="28" height="46" fill="#9e3c2f" stroke="#d4a740" stroke-width="3"/><path d="M0 46 L14 34 L28 46 Z" fill="#6b2923"/><rect x="12" y="7" width="4" height="24" fill="#d4a740"/><rect x="6" y="15" width="16" height="4" fill="#d4a740"/></g><g transform="translate(192,96)"><rect x="0" y="0" width="28" height="46" fill="#9e3c2f" stroke="#d4a740" stroke-width="3"/><path d="M0 46 L14 34 L28 46 Z" fill="#6b2923"/><rect x="12" y="7" width="4" height="24" fill="#d4a740"/><rect x="6" y="15" width="16" height="4" fill="#d4a740"/></g>
</svg>
