<svg xmlns="http://www.w3.org/2000/svg" width="256" height="192" viewBox="0 0 256 192" shape-rendering="crispEdges">
<ellipse cx="128" cy="176" rx="88" ry="12" fill="#3c2b20" opacity="0.24"/>
    <rect x="42" y="62" width="172" height="114" fill="#c99968" stroke="#5b3f2d" stroke-width="8"/>
    <path d="M24 72 L128 16 L232 72 L212 94 L44 94 Z" fill="#8e3d43" stroke="#5b3f2d" stroke-width="8"/>
    <rect x="108" y="132" width="40" height="44" fill="#5b3f2d" />
    <rect x="58" y="105" width="12" height="66" fill="#765031" /><rect x="54" y="99" width="20" height="8" fill="#5b3f2d" /><rect x="54" y="168" width="20" height="8" fill="#5b3f2d" />
<rect x="88" y="105" width="12" height="66" fill="#765031" /><rect x="84" y="99" width="20" height="8" fill="#5b3f2d" /><rect x="84" y="168" width="20" height="8" fill="#5b3f2d" />
<rect x="166" y="105" width="12" height="66" fill="#765031" /><rect x="162" y="99" width="20" height="8" fill="#5b3f2d" /><rect x="162" y="168" width="20" height="8" fill="#5b3f2d" />
<rect x="196" y="105" width="12" height="66" fill="#765031" /><rect x="192" y="99" width="20" height="8" fill="#5b3f2d" /><rect x="192" y="168" width="20" height="8" fill="#5b3f2d" />
    <rect x="62" y="102" width="24" height="22" fill="#f3dc9d" stroke="#5b3f2d" stroke-width="4"/><rect x="170" y="102" width="24" height="22" fill="#f3dc9d" stroke="#5b3f2d" stroke-width="4"/>
    
    
    <rect x="34" y="146" width="26" height="22" fill="#6d4a31" /><rect x="198" y="146" width="22" height="18" fill="#6d4a31" />
</svg>
